<svg height="375" viewBox="0 0 375 375" width="375" xmlns="http://www.w3.org/2000/svg"><g fill="none" fill-rule="evenodd"><g transform="translate(75 42)"><path d="m49.5174869-1c2.5119941 0 3.4088494.29689756 4.3234261.78601856.991661.53034608 1.7699223 1.30860738 2.3002683 2.30026832.489121.91457675.7860186 1.81143205.7860186 4.32342612v90.590287h-52.85245902v-90.590287c0-2.51199407.29689756-3.40884937.78601856-4.32342612.53034608-.99166094 1.30860738-1.76992224 2.30026832-2.30026832.91457675-.489121 1.81143205-.78601856 4.32342614-.78601856z" fill="#eddef4" stroke="#ab7bbc" stroke-width="2"/><path d="m6.41068339 11.5h47.18057401c2.0871982 0 2.851094.1996473 3.6160278.6087384.7263918.3884785 1.2964683.958555 1.6849468 1.6849468.4090911.7649338.6087384 1.5288296.6087384 3.6160225l-.0009577 90.7189563-1.9989432-1.99951-3.5009715 3.500001-3.4990296-3.5-3.5009704 3.5-3.4990214-3.499992-3.0009622 2.999992-2.9990378-3.000008-3.5009786 3.500008-3.4990296-3.5-3.5009704 3.5-3.4990296-3.5-3.5009704 3.5-3.4990296-3.5-3.5009704 3.5-3.49902566-3.499996-3.24101941 3.240049-3.24003761-3.240038-2.52000265 2.519785.00095772-91.239242c0-2.0871982.19964726-2.851094.60873836-3.6160278.38847856-.7263918.95855506-1.2964683 1.68494681-1.6849468.76493385-.4090911 1.52882959-.6087384 3.61602783-.6087384z" fill="#fff" stroke="#ab7bbc"/><g fill="#b373d3" fill-rule="nonzero"><g transform="translate(3.356927 16.553223)"><path d="m2.91357422 6.55224609c1.17773437 0 2.04345703-.49658203 2.45214844-1.35351562.0703125-.14501953.10546875-.27246094.10546875-.40869141 0-.25927734-.18457032-.44384765-.45263672-.44384765-.21533203 0-.34277344.09667968-.44824219.32958984-.29443359.68554687-.88769531 1.01513672-1.66113281 1.01513672-1.16455078 0-1.90283203-.93603516-1.90283203-2.41699219 0-1.46777344.74707031-2.41259765 1.8984375-2.41259765.72949218 0 1.35351562.37792968 1.64794922 1.08544921.10986328.25488282.26367187.36914063.49658203.36914063.26367187 0 .43945312-.17138672.43945312-.43505859 0-.11865235-.03076172-.25048829-.09228515-.37792969-.39550782-.93603516-1.32714844-1.50292969-2.49169922-1.50292969-1.7709961 0-2.90478516 1.265625-2.90478516 3.27392578 0 2.02148438 1.12060547 3.27832031 2.91357422 3.27832031z"/><path d="m7.71679688 6.52587891c.60205078 0 1.19091796-.32519532 1.45898437-.83935547h.02197266v.39111328c.00878906.28125.18896484.45263672.45263671.45263672.26806641 0 .45703128-.18017578.45703128-.47900391v-2.79052734c0-.9272461-.71630862-1.52050781-1.83691409-1.52050781-.8305664 0-1.52929687.33398437-1.77099609.85693359-.05712891.10546875-.0834961.2109375-.0834961.30761719 0 .23730468.17138672.39550781.40869141.39550781.16699219 0 .29003906-.06152344.38671875-.20214844.26367188-.421875.56689453-.58447265 1.02392578-.58447265.58007813 0 .9272461.30761718.9272461.82177734v.35595703l-1.27001954.07470703c-1.09423828.06152344-1.71826171.55810547-1.71826171 1.36669922 0 .83056641.63720703 1.39306641 1.54248047 1.39306641zm.25927734-.75146485c-.5053711 0-.84375-.26367187-.84375-.66796875 0-.39550781.32080078-.64599609.88769531-.68554687l1.14257813-.0703125v.36474609c0 .60205078-.52294922 1.05908203-1.18652344 1.05908203z"/><path d="m11.5004883 6.53027344c.2768555 0 .4746094-.18896485.4746094-.50097656v-2.27636719c0-.7163086.430664-1.19091797 1.0986328-1.19091797.6591797 0 .984375.38232422.984375 1.07666016v2.390625c0 .31201171.1977539.50097656.4746093.50097656.28125 0 .479004-.18896485.479004-.50097656v-2.57519532c0-1.05908203-.5844727-1.70947265-1.604004-1.70947265-.711914 0-1.1953125.31640625-1.4458007.84375h-.0219727v-.3647461c0-.29443359-.1889648-.48339843-.4614258-.48339843-.2768554 0-.4526367.18896484-.4526367.4790039v3.8100586c0 .31201171.1933594.50097656.4746094.50097656z"/><path d="m17.9033203 6.53466797c.8569336 0 1.6083985-.45263672 1.8500977-1.08984375.0351562-.09228516.0527343-.17138672.0527343-.24609375 0-.23730469-.1713867-.39550781-.4042968-.39550781-.206543 0-.3076172.07910156-.4394532.30761718-.2241211.39990235-.5361328.62841797-1.0502929.62841797-.7338867 0-1.2260742-.59765625-1.2260742-1.6040039 0-.984375.4833984-1.60400391 1.2260742-1.60400391.4877929 0 .8129883.2109375 1.0502929.65039062.1142579.2109375.2285157.29003907.4306641.29003907.2329102 0 .4042969-.14941407.4042969-.39111328 0-.06591797-.0175781-.14501953-.0439453-.21972657-.2021485-.64599609-.9667969-1.12060546-1.8588868-1.12060546-1.3183593 0-2.1752929.94042968-2.1752929 2.40380859 0 1.47216797.8613281 2.390625 2.184082 2.390625z"/><path d="m22.5791016 6.53466797c.8613281 0 1.5336914-.34716797 1.836914-.95361328.0395508-.09228516.065918-.18017578.065918-.25488281 0-.23730469-.1669922-.38671876-.3955078-.38671876-.1362305 0-.2329102.04833985-.3339844.16699219-.3515625.47900391-.6767578.65917969-1.1953125.65917969-.7558594 0-1.2304687-.52734375-1.2304687-1.37109375v-.02197266h2.7949218c.2944336 0 .4702149-.17578125.4702149-.48339843 0-1.26123047-.8481446-2.14892578-2.0786133-2.14892578-1.3095703 0-2.1445313.94921874-2.1445313 2.41699218 0 1.49414063.8173829 2.37744141 2.2104493 2.37744141zm-1.2480469-2.82568359c.0483398-.72070313.5229492-1.20410157 1.1777344-1.20410157.6591797 0 1.1118164.47900391 1.133789 1.20410157z"/><path d="m25.8354492 6.53027344c.2768555 0 .4746094-.18896485.4746094-.50097656v-5.50634766c0-.31201172-.1977539-.50097656-.4746094-.50097656-.2768554 0-.4746094.18896484-.4746094.50097656v5.50634766c0 .31201171.197754.50097656.4746094.50097656z"/></g><g transform="translate(35.528314 16.658691)"><path d="m.66357422 6.34130859h1.7578125c1.90283203 0 3.0234375-1.1821289 3.0234375-3.19482421 0-2.01269532-1.12060547-3.14648438-3.0234375-3.14648438h-1.7578125c-.41748047 0-.66357422.25488281-.66357422.68994141v4.95703125c0 .43945312.24609375.69433593.66357422.69433593zm.66357422-1.09863281v-4.1484375h.93603515c1.16894532 0 1.828125.72949219 1.828125 2.05664063 0 1.37109375-.64160156 2.09179687-1.828125 2.09179687z"/><path d="m8.34960938 6.44238281c1.42382812 0 2.33349612-.90966797 2.33349612-2.4609375 0-1.52929687-.92285159-2.45214843-2.33349612-2.45214843-1.41064454 0-2.3334961.92724609-2.3334961 2.45214843 0 1.546875.90966797 2.4609375 2.3334961 2.4609375zm0-.97998047c-.6328125 0-1.03271485-.53173828-1.03271485-1.4765625 0-.93603515.40869141-1.4765625 1.03271485-1.4765625.62402343 0 1.02832031.54052735 1.02832031 1.4765625 0 .94482422-.39990235 1.4765625-1.02832031 1.4765625z"/><path d="m11.9838867 6.43359375c.3779297 0 .6416016-.22851563.6416016-.66796875v-2.12695312c0-.61083985.3647461-1.03271485.9404297-1.03271485s.8657226.3515625.8657226.96679688v2.19287109c0 .43945312.2636719.66796875.6416016.66796875.3735351 0 .6416016-.22851563.6416016-.66796875v-2.4609375c0-1.10302734-.5888672-1.76220703-1.6347657-1.76220703-.7250976 0-1.199707.32080078-1.4501953.90527344h-.0263672v-.26367188c0-.40429687-.2548828-.65039062-.6416015-.65039062-.3867188 0-.6196289.24609375-.6196289.64599609v3.5859375c0 .43945312.2680664.66796875.6416015.66796875z"/><path d="m18.6943359 6.44238281c.909668 0 1.6391602-.34277343 1.9511719-.92285156.0571289-.10546875.0878906-.2109375.0878906-.31201172 0-.29443359-.2241211-.47021484-.5009765-.47021484-.1669922 0-.28125.04833984-.4174805.18896484-.347168.40869141-.6547852.56689453-1.125.56689453-.6503906 0-1.0722656-.45703125-1.0722656-1.15576172v-.0571289h2.6894531c.355957 0 .5581055-.20214844.5581055-.55810547 0-1.27880859-.8964844-2.19287109-2.2324219-2.19287109-1.3930664 0-2.2763672.96240234-2.2763672 2.47851562 0 1.52490234.8657227 2.43457031 2.3378906 2.43457031zm-1.0634765-2.94873047c.0439453-.60205078.4526367-1.01513672 1.0151367-1.01513672s.9580078.39990235.984375 1.01513672z"/></g></g></g><g transform="translate(233.00097 42)"><path d="m19.2555408-1h39.5600084c3.8492722 0 5.2310569.43613598 6.6345225 1.18671762 1.4805498.79180671 2.642494 1.95375088 3.4343007 3.43430071.7505817 1.40346563 1.1867176 2.78525029 1.1867176 6.63452247v109.4889182c0 3.849272-.4361359 5.231057-1.1867176 6.634523-.7918067 1.48055-1.9537509 2.642494-3.4343007 3.4343-1.4034656.750582-2.7852503 1.186718-6.6345225 1.186718h-39.5600084c-3.8492722 0-5.2310568-.436136-6.6345225-1.186718-1.4805498-.791806-2.64249397-1.95375-3.43430068-3.4343-.75058164-1.403466-1.18671762-2.785251-1.18671762-6.634523v-109.4889182c0-3.84927218.43613598-5.23105684 1.18671762-6.63452247.79180671-1.48054983 1.95375088-2.642494 3.43430068-3.43430071 1.4034657-.75058164 2.7852503-1.18671762 6.6345225-1.18671762z" fill="#eddef4" stroke="#ab7bbc" stroke-width="2"/><path d="m71.3083444 43.5c2.5329576 0 3.4584965.2460601 4.3863933.7423047.8893547.4756321 1.5873255 1.1736029 2.0629576 2.0629576.4962446.9278968.7423047 1.8534357.7423047 4.3863933v25.6166888c0 2.5329576-.2460601 3.4584965-.7423047 4.3863933-.4756321.8893547-1.1736029 1.5873255-2.0629576 2.0629576-.9278968.4962446-1.8534357.7423047-4.3863933.7423047h-63.6166888c-2.53295761 0-3.45849647-.2460601-4.38639328-.7423047-.88935472-.4756321-1.5873255-1.1736029-2.06295761-2.0629576-.49624464-.9278968-.74230471-1.8534357-.74230471-4.3863933v-25.6166888c0-2.5329576.24606007-3.4584965.74230471-4.3863933.47563211-.8893547 1.17360289-1.5873255 2.06295761-2.0629576.92789681-.4962446 1.85343567-.7423047 4.38639328-.7423047z" fill="#fff" stroke="#ab7bbc"/><g fill="#b373d3" fill-rule="nonzero"><g transform="translate(41.32959 70.377441)"><path d="m3.0234375 6.72802734c1.19970703 0 2.14453125-.54052734 2.54003906-1.41943359.06591797-.15380859.10107422-.29443359.10107422-.44384766 0-.3515625-.24609375-.58886718-.6196289-.58886718-.28125 0-.44824219.11865234-.58447266.41748047-.28564453.63720703-.7866211.94042968-1.45458985.94042968-1.01513671 0-1.65234375-.83496094-1.65234375-2.18847656 0-1.3359375.6459961-2.17529297 1.64794922-2.17529297.6328125 0 1.15136719.32519531 1.44140625.97119141.14501953.30761718.33398438.43945312.6328125.43945312.3515625 0 .58447266-.22412109.58447266-.57128906 0-.15820312-.04394531-.32958984-.13183594-.49658203-.43505859-.9140625-1.35351562-1.44140625-2.54003906-1.44140625-1.82373047 0-2.98828125 1.23486328-2.98828125 3.27832031 0 2.04785156 1.14257812 3.27832031 3.0234375 3.27832031z"/><path d="m8.66162109 6.72363281c1.42382811 0 2.33349611-.90966797 2.33349611-2.4609375 0-1.52929687-.9228516-2.45214843-2.33349611-2.45214843-1.41064453 0-2.33349609.92724609-2.33349609 2.45214843 0 1.546875.90966797 2.4609375 2.33349609 2.4609375zm0-.97998047c-.6328125 0-1.03271484-.53173828-1.03271484-1.4765625 0-.93603515.40869141-1.4765625 1.03271484-1.4765625.62402344 0 1.02832032.54052735 1.02832032 1.4765625 0 .94482422-.39990235 1.4765625-1.02832032 1.4765625z"/><path d="m12.2958984 6.71484375c.3779297 0 .6416016-.22851563.6416016-.66796875v-2.12695312c0-.61083985.3647461-1.03271485.9404297-1.03271485s.8657226.3515625.8657226.96679688v2.19287109c0 .43945312.2636719.66796875.6416016.66796875.3735352 0 .6416016-.22851563.6416016-.66796875v-2.4609375c0-1.10302734-.5888672-1.76220703-1.6347657-1.76220703-.7250976 0-1.199707.32080078-1.4501953.90527344h-.0263672v-.26367188c0-.40429687-.2548828-.65039062-.6416015-.65039062-.3867188 0-.6196289.24609375-.6196289.64599609v3.5859375c0 .43945312.2680664.66796875.6416015.66796875z"/><path d="m17.8242188 6.71484375c.3779296 0 .6416015-.22412109.6416015-.66796875v-3.16845703h.5097656c.2680664 0 .4702149-.17138672.4702149-.47460938 0-.29882812-.2021485-.47021484-.4702149-.47021484h-.5405273v-.29882813c0-.34716796.1582031-.50537109.5537109-.51855468.0966797-.00439453.1757813-.01757813.2460938-.03515625.1713867-.05273438.2592773-.15820313.2592773-.33837891 0-.30322265-.2856445-.51855469-.9667968-.51855469-.8876954.00878907-1.3447266.421875-1.3447266 1.35351563v.35595703h-.2460938c-.2680664 0-.4702148.17138672-.4702148.47021484 0 .30322266.2021484.47460938.4702148.47460938h.2460938v3.16845703c0 .44384766.2592773.66796875.6416016.66796875z"/><path d="m20.7070312 1.32714844c.3867188 0 .6855469-.2944336.6855469-.66357422 0-.37353516-.2988281-.66357422-.6855469-.66357422-.3867187 0-.6855468.29003906-.6855468.66357422 0 .36914062.2988281.66357422.6855468.66357422zm0 5.38769531c.3955079 0 .6416016-.25048828.6416016-.66796875v-3.55957031c0-.41748047-.2460937-.67236328-.6416016-.67236328-.3999023 0-.6416015.25488281-.6416015.67236328v3.55957031c0 .41748047.2416992.66796875.6416015.66796875z"/><path d="m22.8427734 6.71484375c.3911133 0 .6416016-.24169922.6416016-.66796875v-2.09179688c0-.55810546.206543-.88769531.7910156-.89648437.2504883-.00439453.4350586-.06152344.5581055-.16699219s.1845703-.25927734.1845703-.46142578c0-.21972656-.0615234-.37792969-.1845703-.47460937-.0922852-.07910157-.2285156-.11865235-.3999023-.11865235-.4702149 0-.8569336.34716797-.9799805.93164063h-.0263672v-.30761719c0-.40869141-.2460938-.64599609-.6064453-.64599609-.3691406 0-.6196289.23730468-.6196289.64599609v3.5859375c0 .42626953.2548828.66796875.6416015.66796875z"/><path d="m26.1166992 6.71484375c.3779297 0 .6416016-.23291016.6416016-.66796875v-2.26757812c0-.52734376.3295898-.89648438.8173828-.89648438.4746094 0 .7602539.29882812.7602539.80419922v2.35986328c0 .43505859.2373047.66796875.6152344.66796875.3823242 0 .6196289-.23291016.6196289-.66796875v-2.28515625c0-.52294922.3208008-.87890625.8085937-.87890625.4965821 0 .769043.29882812.769043.84375v2.3203125c0 .43505859.2592773.66796875.637207.66796875.3823243 0 .6459961-.23291016.6459961-.66796875v-2.64111328c0-.94921875-.6196289-1.58203125-1.5424804-1.58203125-.6899414 0-1.2524414.37353515-1.463379.96679687h-.0263671c-.1582032-.61523437-.6328125-.96679687-1.3139649-.96679687-.6416015 0-1.1469726.37353515-1.3447265.94042969h-.0263672v-.2944336c0-.43066406-.2548828-.65478515-.6196289-.65478515s-.6196289.22412109-.6196289.65478515v3.57714844c0 .43505859.2592773.66796875.6416015.66796875z"/></g><g transform="translate(4.355957 70.553223)"><path d="m2.91357422 6.55224609c1.17773437 0 2.04345703-.49658203 2.45214844-1.35351562.0703125-.14501953.10546875-.27246094.10546875-.40869141 0-.25927734-.18457032-.44384765-.45263672-.44384765-.21533203 0-.34277344.09667968-.44824219.32958984-.29443359.68554687-.88769531 1.01513672-1.66113281 1.01513672-1.16455078 0-1.90283203-.93603516-1.90283203-2.41699219 0-1.46777344.74707031-2.41259765 1.8984375-2.41259765.72949218 0 1.35351562.37792968 1.64794922 1.08544921.10986328.25488282.26367187.36914063.49658203.36914063.26367187 0 .43945312-.17138672.43945312-.43505859 0-.11865235-.03076172-.25048829-.09228515-.37792969-.39550782-.93603516-1.32714844-1.50292969-2.49169922-1.50292969-1.7709961 0-2.90478516 1.265625-2.90478516 3.27392578 0 2.02148438 1.12060547 3.27832031 2.91357422 3.27832031z"/><path d="m7.71679688 6.52587891c.60205078 0 1.19091796-.32519532 1.45898437-.83935547h.02197266v.39111328c.00878906.28125.18896484.45263672.45263671.45263672.26806641 0 .45703128-.18017578.45703128-.47900391v-2.79052734c0-.9272461-.71630862-1.52050781-1.83691409-1.52050781-.8305664 0-1.52929687.33398437-1.77099609.85693359-.05712891.10546875-.0834961.2109375-.0834961.30761719 0 .23730468.17138672.39550781.40869141.39550781.16699219 0 .29003906-.06152344.38671875-.20214844.26367188-.421875.56689453-.58447265 1.02392578-.58447265.58007813 0 .9272461.30761718.9272461.82177734v.35595703l-1.27001954.07470703c-1.09423828.06152344-1.71826171.55810547-1.71826171 1.36669922 0 .83056641.63720703 1.39306641 1.54248047 1.39306641zm.25927734-.75146485c-.5053711 0-.84375-.26367187-.84375-.66796875 0-.39550781.32080078-.64599609.88769531-.68554687l1.14257813-.0703125v.36474609c0 .60205078-.52294922 1.05908203-1.18652344 1.05908203z"/><path d="m11.5004883 6.53027344c.2768555 0 .4746094-.18896485.4746094-.50097656v-2.27636719c0-.7163086.430664-1.19091797 1.0986328-1.19091797.6591797 0 .984375.38232422.984375 1.07666016v2.390625c0 .31201171.1977539.50097656.4746093.50097656.28125 0 .479004-.18896485.479004-.50097656v-2.57519532c0-1.05908203-.5844727-1.70947265-1.604004-1.70947265-.711914 0-1.1953125.31640625-1.4458007.84375h-.0219727v-.3647461c0-.29443359-.1889648-.48339843-.4614258-.48339843-.2768554 0-.4526367.18896484-.4526367.4790039v3.8100586c0 .31201171.1933594.50097656.4746094.50097656z"/><path d="m17.9033203 6.53466797c.8569336 0 1.6083985-.45263672 1.8500977-1.08984375.0351562-.09228516.0527343-.17138672.0527343-.24609375 0-.23730469-.1713867-.39550781-.4042968-.39550781-.206543 0-.3076172.07910156-.4394532.30761718-.2241211.39990235-.5361328.62841797-1.0502929.62841797-.7338867 0-1.2260742-.59765625-1.2260742-1.6040039 0-.984375.4833984-1.60400391 1.2260742-1.60400391.4877929 0 .8129883.2109375 1.0502929.65039062.1142579.2109375.2285157.29003907.4306641.29003907.2329102 0 .4042969-.14941407.4042969-.39111328 0-.06591797-.0175781-.14501953-.0439453-.21972657-.2021485-.64599609-.9667969-1.12060546-1.8588868-1.12060546-1.3183593 0-2.1752929.94042968-2.1752929 2.40380859 0 1.47216797.8613281 2.390625 2.184082 2.390625z"/><path d="m22.5791016 6.53466797c.8613281 0 1.5336914-.34716797 1.836914-.95361328.0395508-.09228516.065918-.18017578.065918-.25488281 0-.23730469-.1669922-.38671876-.3955078-.38671876-.1362305 0-.2329102.04833985-.3339844.16699219-.3515625.47900391-.6767578.65917969-1.1953125.65917969-.7558594 0-1.2304687-.52734375-1.2304687-1.37109375v-.02197266h2.7949218c.2944336 0 .4702149-.17578125.4702149-.48339843 0-1.26123047-.8481446-2.14892578-2.0786133-2.14892578-1.3095703 0-2.1445313.94921874-2.1445313 2.41699218 0 1.49414063.8173829 2.37744141 2.2104493 2.37744141zm-1.2480469-2.82568359c.0483398-.72070313.5229492-1.20410157 1.1777344-1.20410157.6591797 0 1.1118164.47900391 1.133789 1.20410157z"/><path d="m25.8354492 6.53027344c.2768555 0 .4746094-.18896485.4746094-.50097656v-5.50634766c0-.31201172-.1977539-.50097656-.4746094-.50097656-.2768554 0-.4746094.18896484-.4746094.50097656v5.50634766c0 .31201171.197754.50097656.4746094.50097656z"/></g></g></g><path d="m237.462009 107.5h70.077922" stroke="#eddef4"/><path d="m269.50097 109.535714v13.928572" stroke="#eddef4"/><g transform="translate(157 225)"><path d="m49.5174869-1c2.5119941 0 3.4088494.29689756 4.3234261.78601856.991661.53034608 1.7699223 1.30860738 2.3002683 2.30026832.489121.91457675.7860186 1.81143205.7860186 4.32342612v90.590287h-52.85245902v-90.590287c0-2.51199407.29689756-3.40884937.78601856-4.32342612.53034608-.99166094 1.30860738-1.76992224 2.30026832-2.30026832.91457675-.489121 1.81143205-.78601856 4.32342614-.78601856z" fill="#eddef4" stroke="#ab7bbc" stroke-width="2"/><path d="m6.41068339 11.5h47.18057401c2.0871982 0 2.851094.1996473 3.6160278.6087384.7263918.3884785 1.2964683.958555 1.6849468 1.6849468.4090911.7649338.6087384 1.5288296.6087384 3.6160225l-.0009577 90.7189563-1.9989432-1.99951-3.5009715 3.500001-3.4990296-3.5-3.5009704 3.5-3.4990214-3.499992-3.0009622 2.999992-2.9990378-3.000008-3.5009786 3.500008-3.4990296-3.5-3.5009704 3.5-3.4990296-3.5-3.5009704 3.5-3.4990296-3.5-3.5009704 3.5-3.49902566-3.499996-3.24101941 3.240049-3.24003761-3.240038-2.52000265 2.519785.00095772-91.239242c0-2.0871982.19964726-2.851094.60873836-3.6160278.38847856-.7263918.95855506-1.2964683 1.68494681-1.6849468.76493385-.4090911 1.52882959-.6087384 3.61602783-.6087384z" fill="#fff" stroke="#ab7bbc"/><g fill="#b373d3" fill-rule="nonzero"><g transform="translate(4.356927 17.553223)"><path d="m2.91357422 6.55224609c1.17773437 0 2.04345703-.49658203 2.45214844-1.35351562.0703125-.14501953.10546875-.27246094.10546875-.40869141 0-.25927734-.18457032-.44384765-.45263672-.44384765-.21533203 0-.34277344.09667968-.44824219.32958984-.29443359.68554687-.88769531 1.01513672-1.66113281 1.01513672-1.16455078 0-1.90283203-.93603516-1.90283203-2.41699219 0-1.46777344.74707031-2.41259765 1.8984375-2.41259765.72949218 0 1.35351562.37792968 1.64794922 1.08544921.10986328.25488282.26367187.36914063.49658203.36914063.26367187 0 .43945312-.17138672.43945312-.43505859 0-.11865235-.03076172-.25048829-.09228515-.37792969-.39550782-.93603516-1.32714844-1.50292969-2.49169922-1.50292969-1.7709961 0-2.90478516 1.265625-2.90478516 3.27392578 0 2.02148438 1.12060547 3.27832031 2.91357422 3.27832031z"/><path d="m7.71679688 6.52587891c.60205078 0 1.19091796-.32519532 1.45898437-.83935547h.02197266v.39111328c.00878906.28125.18896484.45263672.45263671.45263672.26806641 0 .45703128-.18017578.45703128-.47900391v-2.79052734c0-.9272461-.71630862-1.52050781-1.83691409-1.52050781-.8305664 0-1.52929687.33398437-1.77099609.85693359-.05712891.10546875-.0834961.2109375-.0834961.30761719 0 .23730468.17138672.39550781.40869141.39550781.16699219 0 .29003906-.06152344.38671875-.20214844.26367188-.421875.56689453-.58447265 1.02392578-.58447265.58007813 0 .9272461.30761718.9272461.82177734v.35595703l-1.27001954.07470703c-1.09423828.06152344-1.71826171.55810547-1.71826171 1.36669922 0 .83056641.63720703 1.39306641 1.54248047 1.39306641zm.25927734-.75146485c-.5053711 0-.84375-.26367187-.84375-.66796875 0-.39550781.32080078-.64599609.88769531-.68554687l1.14257813-.0703125v.36474609c0 .60205078-.52294922 1.05908203-1.18652344 1.05908203z"/><path d="m11.5004883 6.53027344c.2768555 0 .4746094-.18896485.4746094-.50097656v-2.27636719c0-.7163086.430664-1.19091797 1.0986328-1.19091797.6591797 0 .984375.38232422.984375 1.07666016v2.390625c0 .31201171.1977539.50097656.4746093.50097656.28125 0 .479004-.18896485.479004-.50097656v-2.57519532c0-1.05908203-.5844727-1.70947265-1.604004-1.70947265-.711914 0-1.1953125.31640625-1.4458007.84375h-.0219727v-.3647461c0-.29443359-.1889648-.48339843-.4614258-.48339843-.2768554 0-.4526367.18896484-.4526367.4790039v3.8100586c0 .31201171.1933594.50097656.4746094.50097656z"/><path d="m17.9033203 6.53466797c.8569336 0 1.6083985-.45263672 1.8500977-1.08984375.0351562-.09228516.0527343-.17138672.0527343-.24609375 0-.23730469-.1713867-.39550781-.4042968-.39550781-.206543 0-.3076172.07910156-.4394532.30761718-.2241211.39990235-.5361328.62841797-1.0502929.62841797-.7338867 0-1.2260742-.59765625-1.2260742-1.6040039 0-.984375.4833984-1.60400391 1.2260742-1.60400391.4877929 0 .8129883.2109375 1.0502929.65039062.1142579.2109375.2285157.29003907.4306641.29003907.2329102 0 .4042969-.14941407.4042969-.39111328 0-.06591797-.0175781-.14501953-.0439453-.21972657-.2021485-.64599609-.9667969-1.12060546-1.8588868-1.12060546-1.3183593 0-2.1752929.94042968-2.1752929 2.40380859 0 1.47216797.8613281 2.390625 2.184082 2.390625z"/><path d="m22.5791016 6.53466797c.8613281 0 1.5336914-.34716797 1.836914-.95361328.0395508-.09228516.065918-.18017578.065918-.25488281 0-.23730469-.1669922-.38671876-.3955078-.38671876-.1362305 0-.2329102.04833985-.3339844.16699219-.3515625.47900391-.6767578.65917969-1.1953125.65917969-.7558594 0-1.2304687-.52734375-1.2304687-1.37109375v-.02197266h2.7949218c.2944336 0 .4702149-.17578125.4702149-.48339843 0-1.26123047-.8481446-2.14892578-2.0786133-2.14892578-1.3095703 0-2.1445313.94921874-2.1445313 2.41699218 0 1.49414063.8173829 2.37744141 2.2104493 2.37744141zm-1.2480469-2.82568359c.0483398-.72070313.5229492-1.20410157 1.1777344-1.20410157.6591797 0 1.1118164.47900391 1.133789 1.20410157z"/><path d="m25.8354492 6.53027344c.2768555 0 .4746094-.18896485.4746094-.50097656v-5.50634766c0-.31201172-.1977539-.50097656-.4746094-.50097656-.2768554 0-.4746094.18896484-.4746094.50097656v5.50634766c0 .31201171.197754.50097656.4746094.50097656z"/></g><path d="m6.1875 12.3808594c3.3984375 0 6.1875-2.7949219 6.1875-6.1933594 0-3.39257812-2.79492188-6.1875-6.1875-6.1875-3.3984375 0-6.1875 2.79492188-6.1875 6.1875 0 3.3984375 2.79492188 6.1933594 6.1875 6.1933594zm.00585938-3.01757815c-.3984375 0-.703125-.27539063-.703125-.66210937v-2.6015625l.0703125-1.21289063-.4453125.60351563-.62109376.69140624c-.10546874.12304688-.27539062.19921876-.45117187.19921876-.35742187 0-.609375-.24609376-.609375-.5859375 0-.1875.05273437-.32226563.1875-.46875l2.00390625-2.08007813c.1640625-.17578125.33984375-.2578125.56835938-.2578125.22851562 0 .41015624.08203125.57421874.2578125l1.99804688 2.08007813c.13476562.14648437.1875.28125.1875.46875 0 .33984374-.25195312.5859375-.609375.5859375-.17578125 0-.34570312-.0703125-.45117188-.19921876l-.61523437-.67382812-.45703125-.62695312.07617188 1.21875v2.6015625c0 .38671874-.3046875.66210937-.703125.66210937z" transform="translate(44.049799 15.582031)"/></g></g></g></svg>